<svg width="370" height="198" viewBox="0 0 370 198" fill="none" xmlns="http://www.w3.org/2000/svg">
<path d="M337 99.5V77H369.5V99.5H337Z" stroke="white"/>
<path d="M156.5 21.5L123 50.5L121.5 49.5L119.5 48.5L116.5 47.5L113.5 46.5L109 45.5L103 44.5L97 44L92.5 44.5L86 45.5L80.5 47L73 50L68.5 52.5L63.5 56L60 59L55.5 64L51 70L49.5 73L46.5 79L45 83L44 87L43 93L42.5 98V102L43 105L44 111L45.5 116L48 122.5L50.5 127.5L56 135L62 141L66 144L78 150.5L88 153.5L97 154H102L113.5 152L125 147L134 140.5L140 134.5L145 127.5L149 119L151.631 110.5H256L246 93L274 77L285 96.5L297 76.5L324.5 93.5L314.3 110.5H369.5V197.5H337V170V143H302V169.5H269.5V143H185L184 145L180.5 151L176.5 157L171 164L163.5 172L154 179.5L141 187.5L130 192L119 195L110 196.5L100 197H93.5L88 196.5L81 195.5L74.5 194L66 191.5L59 188.5L50 184L41 178L33 171.5L28 166.5L24 162L19 155.5L15 149L12 143.5L8.5 136L5 126L2.5 115L1.5 107L1 96L2 83L6.5 65L14 49L21 38.5L30.5 28L41 19L49 14L59 9L74 4L84 2L97 1L115 3L135 9L156.5 21.5Z" stroke="white"/>
</svg>
