<svg width="33" height="37" viewBox="0 0 33 37" fill="none" xmlns="http://www.w3.org/2000/svg">
    <path
        d="M16.5 26.833C17.4512 26.833 18.2222 26.0619 18.2222 25.1107C18.2222 24.1596 17.4512 23.3885 16.5 23.3885C15.5488 23.3885 14.7778 24.1596 14.7778 25.1107C14.7778 26.0619 15.5488 26.833 16.5 26.833Z"
        stroke="white" stroke-width="2" stroke-linecap="round" stroke-linejoin="round" />
    <path
        d="M28.5556 14.7774H4.44444C2.54213 14.7774 1 16.3195 1 18.2219V31.9996C1 33.902 2.54213 35.4441 4.44444 35.4441H28.5556C30.4579 35.4441 32 33.902 32 31.9996V18.2219C32 16.3195 30.4579 14.7774 28.5556 14.7774Z"
        stroke="white" stroke-width="2" stroke-linecap="round" stroke-linejoin="round" />
    <path
        d="M7.88889 14.7774V9.61073C7.88897 7.7152 8.51449 5.87266 9.66845 4.36886C10.8224 2.86506 12.4403 1.78403 14.2712 1.29343C16.1022 0.802822 18.0438 0.930055 19.7951 1.6554C21.5464 2.38074 23.0094 3.66365 23.9572 5.30518"
        stroke="white" stroke-width="2" stroke-linecap="round" stroke-linejoin="round" />
    <path d="M24.6625 24H26.4375" stroke="white" stroke-linecap="round" stroke-linejoin="round" />
    <path d="M25.55 29.325L26.8812 27.9937" stroke="white" stroke-linecap="round" stroke-linejoin="round" />
    <path
        d="M25.55 32.875C27.5106 32.875 29.1 31.2856 29.1 29.325C29.1 27.3644 27.5106 25.775 25.55 25.775C23.5894 25.775 22 27.3644 22 29.325C22 31.2856 23.5894 32.875 25.55 32.875Z"
        stroke="white" stroke-linecap="round" stroke-linejoin="round" />
</svg>